<?xml version="1.0" standalone="no"?>
<!DOCTYPE svg PUBLIC "-//W3C//DTD SVG 20010904//EN"
 "http://www.w3.org/TR/2001/REC-SVG-20010904/DTD/svg10.dtd">
<svg version="1.0" xmlns="http://www.w3.org/2000/svg"
 width="685.000000pt" height="545.000000pt" viewBox="0 0 685.000000 545.000000"
 preserveAspectRatio="xMidYMid meet">

<g transform="translate(0.000000,545.000000) scale(0.100000,-0.100000)"
fill="#000000" stroke="none">
<path d="M2150 4483 c0 -524 2 -586 19 -668 51 -248 186 -449 375 -560 l44
-25 -89 -193 c-48 -105 -84 -193 -79 -195 15 -5 302 76 378 107 209 85 259
150 423 558 41 101 76 183 79 183 3 0 39 -85 80 -188 156 -393 212 -469 402
-547 61 -25 369 -115 394 -115 12 0 -15 63 -129 312 l-35 77 96 52 c134 72
201 119 255 178 86 96 81 50 85 874 1 400 0 727 -4 727 -16 0 -224 -115 -281
-156 -90 -64 -129 -126 -148 -239 -4 -22 -7 -347 -6 -722 1 -376 -2 -683 -6
-683 -4 1 -39 69 -78 153 -258 564 -609 1287 -624 1287 -17 0 -357 -696 -638
-1306 l-68 -149 -5 730 c-6 780 -4 753 -56 836 -27 44 -77 84 -178 143 -77 46
-191 106 -201 106 -3 0 -5 -260 -5 -577z"/>
<path d="M950 2624 c0 -7 276 -1081 296 -1151 l15 -53 144 0 144 0 9 33 c5 17
42 177 82 354 41 177 77 320 80 317 3 -3 41 -161 86 -352 l81 -347 143 0 143
0 154 580 c84 319 156 590 159 603 l6 22 -166 0 c-164 0 -166 0 -171 -22 -3
-13 -34 -165 -70 -338 -36 -173 -69 -324 -73 -334 -6 -13 -33 93 -87 337 l-79
357 -126 0 -126 0 -79 -354 c-44 -195 -83 -352 -86 -348 -4 4 -37 156 -73 337
-37 182 -70 338 -72 348 -5 15 -22 17 -170 17 -90 0 -164 -3 -164 -6z"/>
<path d="M2730 2337 c-80 -27 -158 -82 -203 -145 -76 -104 -100 -181 -100
-317 0 -156 47 -270 154 -370 64 -59 136 -92 236 -107 68 -10 90 -9 149 5 38
10 88 31 112 47 23 17 45 30 47 30 3 0 5 -13 5 -30 l0 -30 145 0 145 0 0 455
0 455 -145 0 -145 0 0 -31 0 -30 -43 31 c-89 64 -235 79 -357 37z m268 -263
c84 -34 125 -99 126 -194 0 -85 -27 -140 -91 -181 -39 -24 -57 -29 -110 -29
-76 0 -108 15 -156 70 -117 137 -25 348 151 350 23 0 59 -7 80 -16z"/>
<path d="M3910 2339 c-25 -11 -55 -30 -67 -41 l-23 -21 0 26 0 27 -140 0 -140
0 0 -455 0 -455 144 0 145 0 3 279 c3 265 4 281 24 308 27 37 63 53 129 60
l55 6 0 143 0 144 -42 0 c-24 0 -63 -10 -88 -21z"/>
<path d="M4515 2344 c-22 -8 -57 -28 -77 -45 l-38 -30 0 31 0 30 -135 0 -135
0 0 -455 0 -455 145 0 145 0 0 278 c0 268 1 279 23 322 17 36 30 48 64 59 54
19 108 6 137 -32 20 -27 21 -44 26 -325 l5 -297 145 0 145 0 5 297 5 297 29
30 c35 36 84 48 136 32 31 -9 43 -20 59 -54 20 -41 21 -60 21 -325 l0 -282
146 0 145 0 -3 348 -3 347 -27 57 c-36 78 -101 140 -174 168 -49 18 -74 21
-149 18 -76 -3 -98 -8 -143 -33 -29 -16 -68 -45 -86 -65 l-33 -37 -44 47 c-63
66 -107 84 -209 87 -57 2 -98 -2 -125 -13z"/>
<path d="M3995 1363 c-33 -8 -74 -54 -81 -90 -24 -128 155 -185 211 -66 16 33
16 41 4 77 -21 58 -79 93 -134 79z"/>
<path d="M3620 1180 l0 -90 -40 0 -40 0 0 -50 c0 -27 -2 -50 -5 -50 -3 0 -18
12 -33 26 -15 14 -52 38 -82 53 -49 23 -67 26 -165 26 -98 0 -116 -3 -166 -26
-72 -34 -134 -96 -168 -168 -35 -74 -36 -200 -3 -274 30 -66 103 -141 163
-166 99 -43 251 -44 342 -1 51 24 117 77 117 93 0 7 -27 29 -60 51 l-61 39
-22 -21 c-58 -54 -168 -68 -245 -31 -88 43 -126 156 -84 251 52 118 222 155
322 71 l31 -25 58 31 c38 20 73 31 100 31 l41 0 0 -255 0 -255 80 0 80 0 0
255 0 255 45 0 45 0 0 70 0 70 -45 0 -45 0 0 90 0 90 -80 0 -80 0 0 -90z"/>
<path d="M1985 1076 c-197 -94 -245 -384 -90 -554 99 -111 276 -127 384 -36
l31 26 0 -36 0 -36 80 0 80 0 0 325 0 325 -80 0 -80 0 0 -36 0 -35 -33 25
c-82 62 -201 75 -292 32z m222 -131 c50 -21 72 -42 94 -90 33 -71 19 -175 -29
-228 -75 -84 -216 -71 -279 25 -24 36 -28 52 -28 113 0 62 4 77 28 114 47 71
136 99 214 66z"/>
<path d="M2776 1081 c-15 -10 -37 -32 -47 -47 l-19 -29 0 43 0 42 -70 0 -70 0
0 -325 0 -325 79 0 79 0 4 218 c3 235 8 256 60 295 23 17 32 18 52 9 23 -10
25 -8 48 58 28 78 27 80 -45 80 -24 0 -54 -8 -71 -19z"/>
<path d="M4423 1081 c-140 -52 -224 -170 -224 -313 0 -82 16 -138 60 -202 63
-92 161 -137 294 -138 117 0 206 33 270 100 l29 30 -61 41 -61 42 -33 -24
c-109 -82 -266 -54 -325 58 -24 47 -20 133 9 184 58 104 215 131 315 54 l33
-25 61 33 c33 19 60 39 60 45 0 19 -79 85 -129 107 -67 31 -226 35 -298 8z"/>
<path d="M3940 760 l0 -330 85 0 85 0 0 330 0 330 -85 0 -85 0 0 -330z"/>
</g>
</svg>
